# Blender v2.79 (sub 0) OBJ File: 'asteroidtemplate3.blend'
# www.blender.org
o lowpoly_ast3lowpoly
v 0.509114 0.379296 0.299582
v 0.833702 -0.061307 0.312714
v 0.627530 0.090989 0.128522
v 0.504661 0.320271 -0.066542
v 0.619829 0.097336 0.585261
v 0.468918 -0.160233 0.485642
v 0.814474 -0.146244 0.518271
v -0.038657 0.361562 -0.825268
v 0.215611 0.143641 -0.945630
v 0.041492 0.001082 -0.836242
v 0.113227 -0.027255 -0.910335
v -0.169425 0.470877 -0.556609
v 0.302450 0.376639 -0.628447
v 0.389196 0.293385 -0.800361
v 0.688279 -0.444174 0.514012
v 0.412645 -0.577881 0.458336
v 0.457489 -0.711203 0.482532
v 0.680674 0.197545 0.631857
v 0.528349 0.440717 0.479251
v 0.496811 0.389166 0.713736
v 0.187096 -0.620359 0.509214
v 0.103779 -0.855327 0.582145
v 0.133048 -0.380359 0.652567
v 0.082409 -0.304582 0.602518
v -0.039510 -0.579640 0.473639
v 0.154192 0.244000 0.776302
v 0.088617 0.291055 0.849288
v -0.201999 0.024260 0.870431
v 0.150505 0.508941 0.356315
v -0.249373 0.572043 0.323444
v -0.226736 0.530452 0.635945
v -0.229230 -0.606418 0.475438
v -0.103453 -0.962626 0.506377
v 0.018880 -0.795945 0.466927
v -0.464942 -0.072596 0.633359
v -0.612710 -0.172580 0.543399
v -0.357112 -0.099204 0.850015
v -0.768644 0.037254 0.203514
v -0.849754 -0.043288 0.375446
v -0.726703 0.249709 0.474704
v -0.602821 0.175038 0.223009
v -0.744048 0.272298 0.290578
v -0.582281 -0.546670 0.187881
v -0.546066 -0.484359 0.040803
v -0.481748 -0.819994 -0.046622
v -0.662487 -0.044840 -0.011821
v -0.890674 -0.189246 -0.331378
v -0.860718 -0.226139 -0.087466
v -0.536974 0.243057 -0.427651
v -0.692269 0.071379 -0.373817
v -0.606716 0.426343 -0.433719
v -0.402039 -0.162104 -0.514484
v -0.680311 -0.388711 -0.466340
v -0.358979 0.400894 -0.575913
v -0.177067 0.195650 -0.676205
v -0.171618 -0.887521 -0.081954
v -0.108795 -0.627874 -0.397900
v 0.251078 -1.082090 -0.141735
v 0.091479 -0.534468 -0.762686
v -0.123214 -0.431053 -0.773543
v -0.008256 -0.334334 -0.864266
v -0.490493 0.574264 -0.601622
v -0.185355 -0.253293 -0.659646
v -0.389835 -0.441646 -0.579081
v -0.477460 -0.736989 -0.317681
v -0.083864 0.669282 -0.252729
v -0.231582 0.688405 -0.389399
v -0.374840 0.779812 -0.282635
v -0.591211 -0.554017 -0.504470
v -0.584402 0.723713 -0.354374
v -0.428147 0.618627 0.007641
v -0.506773 0.521607 -0.145392
v -0.541770 -0.494404 -0.221104
v -0.761016 -0.338697 0.134175
v -0.534227 0.312796 0.123629
v -0.411590 -0.865915 0.382865
v -0.272768 -0.757250 0.279665
v -0.516259 -0.457760 0.353245
v -0.246058 0.108203 0.701297
v -0.131009 0.399132 0.796766
v -0.456603 0.474687 0.305402
v -0.579247 -0.244157 0.387453
v -0.352094 -0.457314 0.594334
v -0.578458 0.291382 0.471492
v -0.317192 -0.686822 0.572426
v 0.255382 -0.827664 0.212097
v 0.155336 -1.051706 0.357979
v -0.184295 -0.176086 0.663222
v 0.040140 0.396870 0.571130
v 0.108189 -0.953284 0.070423
v 0.006428 -1.049587 0.412021
v 0.314175 0.314731 0.613045
v 0.312138 0.086439 0.639365
v 0.062745 -0.052392 0.638480
v 0.578187 0.469139 -0.046596
v 0.480490 0.488888 0.168388
v 0.335521 -0.302579 0.539249
v 0.380423 0.485620 0.419834
v 0.507364 -0.602918 0.345333
v 0.176032 0.489575 -0.080923
v 0.641967 -0.294571 0.500486
v 0.867126 -0.350387 0.429910
v 0.869185 -0.465234 0.182644
v 0.869573 -0.387655 0.107109
v 0.823335 -0.534714 -0.164655
v 0.404580 -0.736900 0.031490
v 0.639740 -0.722036 -0.203574
v 0.579504 -0.579228 0.127442
v 0.852427 -0.163279 -0.203426
v 0.760559 -0.169976 -0.049112
v 0.814758 -0.209250 -0.269870
v 0.631656 -0.449545 -0.258696
v 0.791967 0.266887 -0.412670
v 0.337464 -0.997103 -0.356548
v 0.530704 0.664418 -0.247992
v 0.607794 -0.268153 -0.441513
v 0.666630 -0.039670 -0.392042
v 0.572337 0.412297 -0.560256
v 0.707328 0.539103 -0.431582
v 0.625533 0.324663 -0.663733
v 0.529162 -0.671700 -0.411994
v 0.158635 -0.428934 -0.760235
v 0.257888 0.500237 -0.411125
v 0.364832 -0.351818 -0.670156
v 0.435810 -0.061768 -0.511773
v 0.287102 0.006626 -0.677009
v 0.559804 0.380866 -0.211981
vt 0.323881 0.741105
vt 0.253282 0.776187
vt 0.269050 0.736926
vt 0.287559 0.693932
vt 0.301753 0.813953
vt 0.276168 0.852110
vt 0.257170 0.805444
vt 0.443324 0.410990
vt 0.437006 0.474348
vt 0.388236 0.459492
vt 0.393696 0.484746
vt 0.468232 0.356251
vt 0.530235 0.456504
vt 0.506362 0.507437
vt 0.224030 0.836649
vt 0.215736 0.887037
vt 0.189614 0.884791
vt 0.309512 0.798954
vt 0.339531 0.765922
vt 0.340842 0.800969
vt 0.220581 0.935870
vt 0.173241 0.954819
vt 0.276426 0.926409
vt 0.295230 0.932718
vt 0.246248 0.986417
vt 0.390082 0.845589
vt 0.410782 0.852566
vt 0.414201 0.940065
vt 0.409622 0.737032
vt 0.501743 0.713809
vt 0.506921 0.797255
vt 0.097684 0.192462
vt 0.054227 0.268321
vt 0.023340 0.223492
vt 0.246235 0.137045
vt 0.241004 0.175504
vt 0.216519 0.102516
vt 0.304354 0.227171
vt 0.280070 0.208113
vt 0.315942 0.186773
vt 0.333233 0.223417
vt 0.327316 0.203391
vt 0.202884 0.267211
vt 0.221404 0.289438
vt 0.178880 0.330334
vt 0.316250 0.261202
vt 0.296228 0.307223
vt 0.283334 0.280710
vt 0.374715 0.327437
vt 0.340899 0.312867
vt 0.397743 0.309589
vt 0.323451 0.374231
vt 0.279010 0.341618
vt 0.410829 0.350703
vt 0.398089 0.395461
vt 0.137622 0.384154
vt 0.214936 0.433047
vt 0.059152 0.496875
vt 0.276114 0.498028
vt 0.295001 0.451412
vt 0.319558 0.471237
vt 0.429419 0.325532
vt 0.321677 0.421496
vt 0.277374 0.393851
vt 0.218140 0.360283
vt 0.522535 0.286496
vt 0.475724 0.305779
vt 0.454189 0.283023
vt 0.260123 0.360293
vt 0.428921 0.293709
vt 0.433837 0.230025
vt 0.411216 0.260207
vt 0.239339 0.324502
vt 0.250386 0.257300
vt 0.364173 0.222390
vt 0.126611 0.273111
vt 0.114536 0.307824
vt 0.194368 0.229248
vt 0.271243 0.081722
vt 0.227958 0.058227
vt 0.325666 0.016534
vt 0.388065 0.165937
vt 0.228671 0.205636
vt 0.151114 0.176964
vt 0.326645 0.162800
vt 0.117031 0.219643
vt 0.122913 0.883937
vt 0.114725 0.942689
vt 0.422339 0.588139
vt 0.158620 0.088437
vt 0.470551 0.852742
vt 0.431003 0.792059
vt 0.055944 0.168168
vt 0.353386 0.967080
vt 0.046085 0.404551
vt 0.021027 0.297801
vt 0.371703 0.799556
vt 0.333925 0.853613
vt 0.341331 0.907007
vt 0.120508 0.982626
vt 0.187610 0.985067
vt 0.306300 0.678743
vt 0.334357 0.710992
vt 0.266754 0.884083
vt 0.363006 0.752968
vt 0.180586 0.852432
vt 0.377777 0.655355
vt 0.247080 0.835787
vt 0.227616 0.806747
vt 0.197060 0.788457
vt 0.199964 0.772858
vt 0.042539 0.929418
vt 0.023407 0.858084
vt 0.158575 0.754764
vt 0.119361 0.836543
vt 0.114396 0.772041
vt 0.160463 0.819535
vt 0.200464 0.714765
vt 0.219035 0.735077
vt 0.186589 0.709219
vt 0.138422 0.725991
vt 0.242044 0.651842
vt 0.015179 0.794902
vt 0.314366 0.638120
vt 0.145738 0.678969
vt 0.190039 0.664845
vt 0.264747 0.603663
vt 0.277065 0.635246
vt 0.239608 0.602704
vt 0.083535 0.732438
vt 0.031642 0.612225
vt 0.326048 0.576426
vt 0.280660 0.546733
vt 0.086408 0.637450
vt 0.157997 0.624128
vt 0.145392 0.568028
vt 0.228063 0.546733
vt 0.575820 0.390867
vt 0.300154 0.514356
vt 0.116533 0.547535
vt 0.281422 0.672181
vt 0.418317 0.553449
vt 0.382346 0.053273
vt 0.442386 0.130622
vn 0.9070 0.3750 -0.1914
vn 0.9048 0.4065 -0.1269
vn 0.8330 0.5132 -0.2066
vn 0.9546 0.1831 0.2348
vn 0.0246 -0.3756 0.9265
vn 0.1554 -0.1973 0.9679
vn 0.4948 0.0291 0.8685
vn -0.3435 0.3184 -0.8835
vn -0.0819 0.0821 -0.9933
vn -0.6390 0.0578 -0.7671
vn 0.3502 -0.2490 -0.9030
vn 0.2127 0.8469 -0.4874
vn 0.0159 0.8704 -0.4921
vn 0.4778 0.4830 -0.7337
vn 0.3704 -0.4848 0.7923
vn 0.0579 -0.0047 0.9983
vn 0.6410 -0.4381 0.6302
vn 0.6208 0.1123 0.7759
vn 0.6435 0.7555 0.1226
vn 0.1211 0.3793 0.9173
vn 0.0246 -0.0426 0.9988
vn -0.1621 -0.2066 0.9649
vn -0.0871 -0.2087 0.9741
vn -0.2158 -0.1064 0.9706
vn -0.1825 -0.2641 0.9471
vn 0.4239 -0.2912 0.8576
vn 0.4508 0.4016 0.7972
vn -0.0480 -0.1511 0.9874
vn 0.2138 0.9550 0.2056
vn -0.1242 0.9704 0.2070
vn -0.2346 0.8010 0.5508
vn 0.3355 -0.0701 0.9394
vn -0.1458 -0.7668 0.6251
vn -0.1788 0.0331 0.9833
vn -0.6069 0.3727 0.7020
vn -0.7804 -0.2953 0.5512
vn -0.4341 0.0920 0.8961
vn -0.7395 0.5253 -0.4208
vn -0.7704 -0.1757 0.6129
vn -0.7321 0.4872 0.4761
vn -0.6454 0.3370 -0.6855
vn -0.7442 0.4462 -0.4971
vn -0.9078 -0.4110 0.0840
vn -0.8527 -0.4863 -0.1907
vn -0.7093 -0.6998 -0.0851
vn -0.8429 0.5376 -0.0246
vn -0.9912 -0.0100 -0.1321
vn -0.9951 -0.0051 -0.0987
vn -0.4399 -0.0774 -0.8947
vn -0.6540 0.2531 -0.7129
vn -0.9061 -0.0135 -0.4229
vn -0.4671 0.0739 -0.8811
vn -0.7469 -0.1996 -0.6343
vn -0.5631 -0.2514 -0.7872
vn -0.5949 -0.0777 -0.8001
vn -0.2643 -0.9549 -0.1351
vn -0.2955 -0.7703 -0.5651
vn 0.1858 -0.9819 0.0371
vn 0.0503 -0.5724 -0.8184
vn -0.5149 -0.4124 -0.7515
vn -0.4549 -0.0661 -0.8881
vn -0.2610 0.5125 -0.8181
vn -0.6150 0.1322 -0.7774
vn -0.3200 -0.2558 -0.9122
vn -0.5063 -0.7705 -0.3872
vn 0.2371 0.9701 0.0512
vn 0.2739 0.8058 -0.5250
vn -0.1271 0.9919 -0.0064
vn -0.4960 -0.5025 -0.7081
vn -0.8173 0.5757 0.0248
vn -0.5689 0.7711 0.2859
vn -0.8799 0.3638 0.3056
vn -0.8115 -0.5835 0.0311
vn -0.7393 -0.6622 0.1226
vn -0.9159 0.3605 -0.1766
vn -0.6325 -0.7334 0.2490
vn -0.1167 -0.9821 -0.1478
vn -0.7300 -0.3158 0.6061
vn -0.6919 0.3636 0.6238
vn -0.2756 0.6400 0.7172
vn -0.5764 0.7922 0.2004
vn -0.6501 -0.5508 0.5234
vn -0.2776 -0.4942 0.8239
vn -0.4211 0.3180 0.8494
vn -0.2243 -0.1608 0.9612
vn 0.8056 -0.5921 0.0227
vn 0.3625 -0.9128 0.1881
vn 0.3060 -0.4609 0.8330
vn 0.2826 0.8424 0.4588
vn -0.5194 -0.8488 -0.0985
vn -0.3103 -0.8316 0.4606
vn 0.0430 0.8571 0.5133
vn 0.2108 -0.2614 0.9419
vn 0.2084 -0.3103 0.9275
vn 0.9422 -0.0824 0.3248
vn 0.6443 0.7443 0.1759
vn 0.4740 -0.2066 0.8559
vn 0.0802 0.9094 0.4081
vn 0.6754 -0.7371 -0.0230
vn 0.0915 0.9538 0.2860
vn -0.1418 0.0026 0.9899
vn 0.8823 -0.3428 0.3226
vn 0.7702 -0.6102 0.1855
vn 0.9893 0.1450 -0.0136
vn 0.8326 -0.2880 -0.4731
vn 0.6347 -0.6985 0.3306
vn 0.7275 -0.6825 -0.0697
vn 0.4656 -0.8400 0.2787
vn 0.9870 0.1596 -0.0194
vn 0.8575 0.4912 0.1530
vn 0.6738 -0.2178 -0.7061
vn 0.6716 -0.2673 -0.6910
vn 0.9817 0.1872 -0.0334
vn 0.2882 -0.7167 -0.6350
vn 0.1752 0.9761 -0.1285
vn 0.7010 -0.0997 -0.7061
vn 0.5639 -0.2100 -0.7987
vn 0.0172 0.8064 -0.5911
vn 0.8125 0.5590 -0.1652
vn 0.5797 -0.0163 -0.8147
vn 0.7247 -0.3056 -0.6176
vn 0.5428 -0.2522 -0.8011
vn 0.0974 0.8220 -0.5610
vn 0.6171 -0.0199 -0.7866
vn 0.5987 -0.1162 -0.7925
vn 0.6554 -0.2460 -0.7141
vn 0.9017 -0.0489 0.4295
s 1
f 1/1/1 2/2/2 3/3/3
f 4/4/4 1/1/1 3/3/3
f 5/5/5 6/6/6 7/7/7
f 8/8/8 9/9/9 10/10/10
f 10/10/10 9/9/9 11/11/11
f 12/12/12 13/13/13 14/14/14
f 15/15/15 16/16/16 17/17/17
f 18/18/18 19/19/19 20/20/20
f 17/17/17 21/21/21 22/22/22
f 23/23/23 24/24/24 25/25/25
f 26/26/26 27/27/27 28/28/28
f 29/29/29 30/30/30 31/31/31
f 32/32/32 33/33/33 34/34/34
f 35/35/35 36/36/36 37/37/37
f 38/38/38 39/39/39 40/40/40
f 41/41/41 38/38/38 42/42/42
f 43/43/43 44/44/44 45/45/45
f 46/46/46 47/47/47 48/48/48
f 49/49/49 50/50/50 51/51/51
f 50/50/50 52/52/52 53/53/53
f 54/54/54 55/55/55 52/52/52
f 56/56/56 57/57/57 58/58/58
f 59/59/59 60/60/60 61/61/61
f 55/55/55 8/8/8 10/10/10
f 8/8/8 62/62/62 12/12/12
f 63/63/63 60/60/60 64/64/64
f 64/64/64 57/57/57 65/65/65
f 63/63/63 64/64/64 52/52/52
f 66/66/66 67/67/67 68/68/68
f 52/52/52 55/55/55 63/63/63
f 49/49/49 54/54/54 52/52/52
f 49/49/49 51/51/51 54/54/54
f 57/57/57 56/56/56 65/65/65
f 69/69/69 64/64/64 65/65/65
f 53/53/53 52/52/52 64/64/64
f 70/70/70 62/62/62 51/51/51
f 69/69/69 65/65/65 53/53/53
f 68/68/68 62/62/62 70/70/70
f 68/68/68 71/71/71 66/66/66
f 45/45/45 65/65/65 56/56/56
f 51/51/51 72/72/72 70/70/70
f 73/73/73 53/53/53 65/65/65
f 53/53/53 73/73/73 47/47/47
f 47/47/47 50/50/50 53/53/53
f 68/68/68 70/70/70 72/72/72
f 51/51/51 46/46/46 72/72/72
f 73/73/73 45/45/45 44/44/44
f 48/48/48 73/73/73 74/74/74
f 71/71/71 72/72/72 75/75/75
f 76/76/76 45/45/45 77/77/77
f 74/74/74 78/78/78 39/39/39
f 38/38/38 48/48/48 39/39/39
f 79/79/79 28/80/28 80/81/80
f 40/40/40 81/82/81 42/42/42
f 76/76/76 78/78/78 43/43/43
f 82/83/82 78/78/78 83/84/83
f 36/36/36 35/35/35 39/39/39
f 36/36/36 82/83/82 83/84/83
f 35/35/35 79/79/79 84/85/84
f 75/75/75 41/41/41 42/42/42
f 85/86/85 83/84/83 78/78/78
f 86/87/86 17/17/17 87/88/87
f 33/33/33 85/86/85 76/76/76
f 83/84/83 85/86/85 32/32/32
f 30/30/30 29/29/29 66/89/66
f 37/37/37 88/90/88 28/80/28
f 85/86/85 33/33/33 32/32/32
f 83/84/83 32/32/32 88/90/88
f 31/31/31 80/91/80 89/92/89
f 89/92/89 29/29/29 31/31/31
f 32/32/32 25/93/25 88/90/88
f 88/94/88 26/26/26 28/28/28
f 28/28/28 27/27/27 80/91/80
f 33/33/33 90/95/90 91/96/91
f 89/92/89 27/27/27 92/97/92
f 93/98/93 94/99/94 24/24/24
f 91/100/91 22/22/22 34/101/34
f 26/26/26 93/98/93 20/20/20
f 26/26/26 20/20/20 92/97/92
f 95/102/95 96/103/96 4/4/4
f 97/104/97 93/98/93 23/23/23
f 5/5/5 18/18/18 20/20/20
f 98/105/98 92/97/92 19/19/19
f 17/17/17 99/106/99 15/15/15
f 100/107/100 29/29/29 96/103/96
f 101/108/101 16/16/16 15/15/15
f 15/15/15 7/7/7 101/108/101
f 1/1/1 19/19/19 2/2/2
f 102/109/102 103/110/103 104/111/104
f 104/111/104 2/2/2 102/109/102
f 2/2/2 7/7/7 102/109/102
f 87/88/87 90/112/90 58/113/58
f 103/110/103 105/114/105 104/111/104
f 101/108/101 7/7/7 6/6/6
f 106/115/106 107/116/107 108/117/108
f 104/111/104 109/118/109 110/119/110
f 4/4/4 3/3/3 110/119/110
f 105/114/105 111/120/111 109/118/109
f 112/121/112 111/120/111 105/114/105
f 113/122/113 110/119/110 109/118/109
f 107/116/107 58/113/58 114/123/114
f 96/103/96 95/102/95 115/124/115
f 116/125/116 111/120/111 112/121/112
f 117/126/117 113/122/113 111/120/111
f 111/120/111 113/122/113 109/118/109
f 118/127/118 119/128/119 120/129/120
f 121/130/121 114/123/114 122/131/122
f 107/116/107 114/123/114 121/130/121
f 116/125/116 112/121/112 121/130/121
f 123/132/123 115/124/115 13/133/13
f 121/130/121 122/131/122 124/134/124
f 116/125/116 121/130/121 124/134/124
f 125/135/125 120/129/120 117/126/117
f 125/135/125 124/134/124 126/136/126
f 14/137/14 118/127/118 120/129/120
f 9/9/9 8/8/8 14/14/14
f 59/59/59 57/57/57 60/60/60
f 8/8/8 12/12/12 14/14/14
f 123/138/123 67/67/67 66/66/66
f 11/11/11 122/139/122 59/59/59
f 61/61/61 11/11/11 59/59/59
f 11/11/11 61/61/61 10/10/10
f 57/57/57 59/59/59 114/140/114
f 57/57/57 114/140/114 58/58/58
f 123/138/123 13/13/13 12/12/12
f 115/124/115 118/127/118 13/133/13
f 118/127/118 14/137/14 13/133/13
f 120/129/120 125/135/125 126/136/126
f 66/89/66 100/107/100 115/124/115
f 115/124/115 119/128/119 118/127/118
f 113/122/113 119/128/119 127/141/127
f 119/128/119 115/124/115 95/102/95
f 86/87/86 58/113/58 106/115/106
f 110/119/110 3/3/3 2/2/2
f 89/92/89 98/105/98 29/29/29
f 2/2/2 104/111/104 110/119/110
f 122/139/122 11/11/11 126/142/126
f 98/105/98 19/19/19 96/103/96
f 17/17/17 86/87/86 99/106/99
f 18/18/18 5/5/5 7/7/7
f 97/104/97 16/16/16 6/6/6
f 87/88/87 17/17/17 22/22/22
f 25/25/25 21/21/21 23/23/23
f 21/21/21 25/25/25 34/101/34
f 94/99/94 88/94/88 24/24/24
f 27/27/27 89/92/89 80/91/80
f 31/143/31 84/85/84 79/79/79
f 79/79/79 35/35/35 37/37/37
f 30/144/30 81/82/81 31/143/31
f 85/86/85 78/78/78 76/76/76
f 39/39/39 35/35/35 84/85/84
f 36/36/36 39/39/39 82/83/82
f 30/144/30 66/66/66 71/71/71
f 84/85/84 31/143/31 81/82/81
f 42/42/42 38/38/38 40/40/40
f 45/45/45 76/76/76 43/43/43
f 72/72/72 46/46/46 75/75/75
f 73/73/73 65/65/65 45/45/45
f 50/50/50 46/46/46 51/51/51
f 64/64/64 69/69/69 53/53/53
f 8/8/8 55/55/55 54/54/54
f 62/62/62 67/67/67 12/12/12
f 62/62/62 8/8/8 54/54/54
f 67/67/67 123/138/123 12/12/12
f 10/10/10 61/61/61 63/63/63
f 63/63/63 61/61/61 60/60/60
f 55/55/55 10/10/10 63/63/63
f 64/64/64 60/60/60 57/57/57
f 52/52/52 50/50/50 49/49/49
f 54/54/54 51/51/51 62/62/62
f 62/62/62 68/68/68 67/67/67
f 44/44/44 74/74/74 73/73/73
f 68/68/68 72/72/72 71/71/71
f 48/48/48 47/47/47 73/73/73
f 46/46/46 50/50/50 47/47/47
f 56/56/56 77/77/77 45/45/45
f 46/46/46 48/48/48 38/38/38
f 71/71/71 75/75/75 81/82/81
f 74/74/74 39/39/39 48/48/48
f 46/46/46 38/38/38 41/41/41
f 41/41/41 75/75/75 46/46/46
f 44/44/44 43/43/43 74/74/74
f 43/43/43 78/78/78 74/74/74
f 78/78/78 82/83/82 39/39/39
f 39/39/39 84/85/84 40/40/40
f 79/79/79 80/81/80 31/143/31
f 81/82/81 75/75/75 42/42/42
f 30/144/30 71/71/71 81/82/81
f 40/40/40 84/85/84 81/82/81
f 56/56/56 90/95/90 77/77/77
f 21/21/21 17/17/17 16/16/16
f 37/37/37 36/36/36 83/84/83
f 33/33/33 76/76/76 77/77/77
f 37/37/37 28/80/28 79/79/79
f 77/77/77 90/95/90 33/33/33
f 83/84/83 88/90/88 37/37/37
f 88/94/88 25/25/25 24/24/24
f 34/34/34 33/33/33 91/96/91
f 32/32/32 34/34/34 25/93/25
f 22/22/22 21/21/21 34/101/34
f 88/94/88 94/99/94 26/26/26
f 94/99/94 93/98/93 26/26/26
f 92/97/92 27/27/27 26/26/26
f 66/89/66 29/29/29 100/107/100
f 90/112/90 87/88/87 91/100/91
f 91/100/91 87/88/87 22/22/22
f 92/97/92 98/105/98 89/92/89
f 16/16/16 97/104/97 21/21/21
f 21/21/21 97/104/97 23/23/23
f 23/23/23 93/98/93 24/24/24
f 6/6/6 93/98/93 97/104/97
f 98/105/98 96/103/96 29/29/29
f 6/6/6 16/16/16 101/108/101
f 6/6/6 5/5/5 93/98/93
f 20/20/20 93/98/93 5/5/5
f 19/19/19 92/97/92 20/20/20
f 19/19/19 18/18/18 7/7/7
f 108/117/108 103/110/103 102/109/102
f 108/117/108 102/109/102 15/15/15
f 15/15/15 99/106/99 108/117/108
f 102/109/102 7/7/7 15/15/15
f 7/7/7 2/2/2 19/19/19
f 99/106/99 86/87/86 106/115/106
f 58/113/58 86/87/86 87/88/87
f 106/115/106 108/117/108 99/106/99
f 1/1/1 96/103/96 19/19/19
f 96/103/96 1/1/1 4/4/4
f 108/117/108 107/116/107 103/110/103
f 58/113/58 107/116/107 106/115/106
f 127/141/127 95/102/95 4/4/4
f 96/103/96 115/124/115 100/107/100
f 104/111/104 105/114/105 109/118/109
f 4/4/4 110/119/110 113/122/113
f 127/141/127 119/128/119 95/102/95
f 107/116/107 112/121/112 105/114/105
f 112/121/112 107/116/107 121/130/121
f 117/126/117 111/120/111 116/125/116
f 117/126/117 116/125/116 125/135/125
f 113/122/113 117/126/117 120/129/120
f 124/134/124 125/135/125 116/125/116
f 90/95/90 56/56/56 58/58/58
f 107/116/107 105/114/105 103/110/103
f 113/122/113 127/141/127 4/4/4
f 120/129/120 119/128/119 113/122/113
f 115/124/115 123/132/123 66/89/66
f 126/136/126 14/137/14 120/129/120
f 126/136/126 124/134/124 122/131/122
f 126/142/126 11/11/11 14/14/14
f 9/9/9 14/14/14 11/11/11
f 122/139/122 114/140/114 59/59/59
